<svg width="44" height="55" viewBox="0 0 44 55" fill="none" xmlns="http://www.w3.org/2000/svg">
<g clip-path="url(#clip0_0_309)">
<path fill-rule="evenodd" clip-rule="evenodd" d="M25.489 0.648566C26.2863 1.031 26.8125 1.98808 26.8125 3.05556V18.8108H41.25C42.0645 18.8108 42.8028 19.4099 43.1341 20.34C43.4655 21.2701 43.328 22.3568 42.7831 23.1136L20.7831 53.6691C20.2118 54.4626 19.3084 54.7339 18.5111 54.3514C17.7138 53.969 17.1875 53.0119 17.1875 51.9444V36.1892H2.75004C1.93553 36.1892 1.19732 35.5901 0.865944 34.66C0.534573 33.7299 0.67212 32.6432 1.21699 31.8864L23.217 1.33088C23.7883 0.537432 24.6917 0.266127 25.489 0.648566ZM7.3811 31.033H19.25C20.3891 31.033 21.3125 32.1873 21.3125 33.6111V45.226L36.619 23.967H24.75C23.6109 23.967 22.6875 22.8127 22.6875 21.3889V9.77404L7.3811 31.033Z" fill="#6D7EEC"/>
<path style="mix-blend-mode:overlay" fill-rule="evenodd" clip-rule="evenodd" d="M25.489 0.648566C26.2863 1.031 26.8125 1.98808 26.8125 3.05556V18.8108H41.25C42.0645 18.8108 42.8028 19.4099 43.1341 20.34C43.4655 21.2701 43.328 22.3568 42.7831 23.1136L20.7831 53.6691C20.2118 54.4626 19.3084 54.7339 18.5111 54.3514C17.7138 53.969 17.1875 53.0119 17.1875 51.9444V36.1892H2.75004C1.93553 36.1892 1.19732 35.5901 0.865944 34.66C0.534573 33.7299 0.67212 32.6432 1.21699 31.8864L23.217 1.33088C23.7883 0.537432 24.6917 0.266127 25.489 0.648566ZM7.3811 31.033H19.25C20.3891 31.033 21.3125 32.1873 21.3125 33.6111V45.226L36.619 23.967H24.75C23.6109 23.967 22.6875 22.8127 22.6875 21.3889V9.77404L7.3811 31.033Z" fill="url(#paint0_linear_0_309)" fill-opacity="0.2"/>
</g>
<defs>
<linearGradient id="paint0_linear_0_309" x1="22" y1="3.05556" x2="0.751971" y2="31.7496" gradientUnits="userSpaceOnUse">
<stop stop-color="#3E467C"/>
<stop offset="1" stop-color="white" stop-opacity="0"/>
</linearGradient>
<clipPath id="clip0_0_309">
<rect width="44" height="55" fill="white"/>
</clipPath>
</defs>
</svg>
